<?xml version="1.0" encoding="UTF-8" standalone="no"?>
<svg
   xmlns:dc="http://purl.org/dc/elements/1.1/"
   xmlns:cc="http://creativecommons.org/ns#"
   xmlns:rdf="http://www.w3.org/1999/02/22-rdf-syntax-ns#"
   xmlns:svg="http://www.w3.org/2000/svg"
   xmlns="http://www.w3.org/2000/svg"
   xmlns:sodipodi="http://sodipodi.sourceforge.net/DTD/sodipodi-0.dtd"
   xmlns:inkscape="http://www.inkscape.org/namespaces/inkscape"
   width="16"
   height="16"
   viewBox="0 0 16 16"
   id="svg2"
   version="1.1"
   inkscape:version="0.91 r13725"
   sodipodi:docname="donate.svg">
  <metadata
     id="metadata11">
    <rdf:RDF>
      <cc:Work
         rdf:about="">
        <dc:format>image/svg+xml</dc:format>
        <dc:type
           rdf:resource="http://purl.org/dc/dcmitype/StillImage" />
        <dc:title></dc:title>
      </cc:Work>
    </rdf:RDF>
  </metadata>
  <sodipodi:namedview
     pagecolor="#ffffff"
     bordercolor="#666666"
     borderopacity="1"
     objecttolerance="10"
     gridtolerance="10"
     guidetolerance="10"
     inkscape:pageopacity="0"
     inkscape:pageshadow="2"
     inkscape:window-width="1535"
     inkscape:window-height="876"
     id="namedview9"
     showgrid="true"
     inkscape:zoom="27.52"
     inkscape:cx="8"
     inkscape:cy="8"
     inkscape:window-x="65"
     inkscape:window-y="24"
     inkscape:window-maximized="1"
     inkscape:current-layer="svg2">
    <inkscape:grid
       type="xygrid"
       id="grid4149" />
  </sodipodi:namedview>
  <defs
     id="defs4">
    <style
       type="text/css"
       id="current-color-scheme">
   .ColorScheme-Text { color:#5c616c; }
  </style>
  </defs>
  <path
     style="opacity:1;fill:#5c616c;fill-opacity:1"
     d="M 7.5 1 C 3.38325 1 0 4.38325 0 8.5 C 0 12.61675 3.38325 16 7.5 16 C 11.61675 16 15 12.61675 15 8.5 C 15 4.38325 11.61675 1 7.5 1 z M 7 3 L 8 3 L 8 4.1601562 C 8.5454293 4.2614121 9.0991628 4.3793859 9.3847656 4.609375 C 9.772639 4.9217201 9.953125 5.28125 9.953125 5.28125 L 9.0527344 5.7167969 C 9.0527344 5.7167969 8.9908436 5.5763262 8.7578125 5.3886719 C 8.617005 5.275283 8.2730464 5.2303669 8 5.1542969 L 8 8.0839844 C 8.381689 8.0797853 8.7656911 8.0197034 9.1503906 8.2695312 C 9.7094719 8.6326044 10.003906 9.3673088 10.003906 10.5 C 10.003906 11.084063 9.858068 11.703133 9.4472656 12.195312 C 9.141306 12.561881 8.5658888 12.68243 8 12.794922 L 8 14 L 7 14 L 7 12.835938 C 6.4641514 12.733656 5.9151397 12.617815 5.6308594 12.390625 C 5.2419407 12.07981 5.0566406 11.724609 5.0566406 11.724609 L 5.9492188 11.275391 C 5.9492188 11.275391 6.0167282 11.419828 6.2539062 11.609375 C 6.3954324 11.722479 6.73407 11.76563 7 11.841797 L 7 8.9140625 C 6.6218936 8.9178033 6.2421556 8.9791306 5.8613281 8.7324219 C 5.3040061 8.371376 5.0136114 7.6392903 5.015625 6.5136719 C 5.0088972 5.9276805 5.1412912 5.3047134 5.5488281 4.8085938 C 5.8515988 4.4400125 6.4326185 4.3221522 7 4.2089844 L 7 3 z M 7 5.1894531 C 6.765372 5.2688294 6.4427084 5.296737 6.3222656 5.4433594 C 6.1122326 5.6990455 6.0105591 6.0791907 6.015625 6.5019531 L 6.015625 6.5058594 L 6.015625 6.5097656 C 6.0128552 7.4811537 6.2161308 7.7706799 6.4042969 7.8925781 C 6.5086604 7.9601872 6.7886557 7.940856 7 7.953125 L 7 5.1894531 z M 8 9.0449219 L 8 11.8125 C 8.2369431 11.732997 8.5552088 11.703823 8.6796875 11.554688 C 8.8949806 11.296746 9.0039062 10.915935 9.0039062 10.5 C 9.0039064 9.525497 8.7960126 9.2311631 8.6054688 9.1074219 C 8.4980559 9.0376619 8.2164913 9.0569209 8 9.0449219 z "
     id="path4141" />
</svg>
