<?xml version="1.0" encoding="UTF-8" standalone="no"?>
<svg
   xmlns:dc="http://purl.org/dc/elements/1.1/"
   xmlns:cc="http://creativecommons.org/ns#"
   xmlns:rdf="http://www.w3.org/1999/02/22-rdf-syntax-ns#"
   xmlns:svg="http://www.w3.org/2000/svg"
   xmlns="http://www.w3.org/2000/svg"
   xmlns:sodipodi="http://sodipodi.sourceforge.net/DTD/sodipodi-0.dtd"
   xmlns:inkscape="http://www.inkscape.org/namespaces/inkscape"
   height="16"
   width="16"
   version="1.1"
   viewBox="0 0 16 16"
   id="svg2"
   inkscape:version="0.91 r13725"
   sodipodi:docname="system-devices-panel.svg">
  <metadata
     id="metadata8">
    <rdf:RDF>
      <cc:Work
         rdf:about="">
        <dc:format>image/svg+xml</dc:format>
        <dc:type
           rdf:resource="http://purl.org/dc/dcmitype/StillImage" />
        <dc:title></dc:title>
      </cc:Work>
    </rdf:RDF>
  </metadata>
  <sodipodi:namedview
     pagecolor="#ffffff"
     bordercolor="#666666"
     borderopacity="1"
     objecttolerance="10"
     gridtolerance="10"
     guidetolerance="10"
     inkscape:pageopacity="0"
     inkscape:pageshadow="2"
     inkscape:window-width="1535"
     inkscape:window-height="876"
     id="namedview6"
     showgrid="false"
     inkscape:zoom="10.727273"
     inkscape:cx="-5.5466102"
     inkscape:cy="11"
     inkscape:window-x="65"
     inkscape:window-y="24"
     inkscape:window-maximized="1"
     inkscape:current-layer="svg2" />
  <defs
     id="defs6">
    <style
       type="text/css"
       id="current-color-scheme">
   .ColorScheme-Text { color:#5c616c; } .ColorScheme-Highlight { color:#5294e2; } .ColorScheme-ButtonBackground { color:#5c616c; }
  </style>
  </defs>
  <path
     style="color:#5c616c;fill:currentColor"
     d="m 8,1.000439 c -0.554,0 -1,0.446 -1,1 l 0,5.003906 c 0,0.554 0.446,1 1,1 0.554,0 1,-0.446 1,-1 L 9,2.000439 c 0,-0.554 -0.446,-1 -1,-1 z m 3.037109,1.9882812 a 1.0001,1.0001 0 0 0 -0.193359,0.011719 1.0001,1.0001 0 0 0 -0.4375,1.8125 c 1.7785,1.3304 2.1428,3.81525 0.8125,5.5937498 -1.3304,1.7785 -3.8465,2.1116 -5.625,0.78125 C 3.81525,9.8575888 3.48215,7.3726892 4.8125,5.5941892 c 0.21656,-0.28951 0.4639,-0.52896 0.75,-0.75 a 1.0032039,1.0032039 0 0 0 -1.21875,-1.59375 c -0.42915,0.33156 -0.83146,0.72204 -1.15625,1.15625 -1.9778,2.644 -1.42525,6.4285498 1.21875,8.4062498 2.644,1.9778 6.42855,1.42525 8.40625,-1.21875 1.9778,-2.6439998 1.42525,-6.4285498 -1.21875,-8.4062498 a 1.0001,1.0001 0 0 0 -0.556641,-0.199219 z"
     id="rect6"
     class="ColorScheme-Text"
     inkscape:connector-curvature="0" />
</svg>
