<?xml version="1.0" encoding="UTF-8" standalone="no"?>
<svg
   xmlns:dc="http://purl.org/dc/elements/1.1/"
   xmlns:cc="http://creativecommons.org/ns#"
   xmlns:rdf="http://www.w3.org/1999/02/22-rdf-syntax-ns#"
   xmlns:svg="http://www.w3.org/2000/svg"
   xmlns="http://www.w3.org/2000/svg"
   xmlns:sodipodi="http://sodipodi.sourceforge.net/DTD/sodipodi-0.dtd"
   xmlns:inkscape="http://www.inkscape.org/namespaces/inkscape"
   width="16"
   height="16"
   viewBox="0 0 16 16"
   id="svg2"
   version="1.1"
   inkscape:version="0.91 r13725"
   sodipodi:docname="tablet_mode.svg">
  <metadata
     id="metadata11">
    <rdf:RDF>
      <cc:Work
         rdf:about="">
        <dc:format>image/svg+xml</dc:format>
        <dc:type
           rdf:resource="http://purl.org/dc/dcmitype/StillImage" />
        <dc:title></dc:title>
      </cc:Work>
    </rdf:RDF>
  </metadata>
  <sodipodi:namedview
     pagecolor="#ffffff"
     bordercolor="#666666"
     borderopacity="1"
     objecttolerance="10"
     gridtolerance="10"
     guidetolerance="10"
     inkscape:pageopacity="0"
     inkscape:pageshadow="2"
     inkscape:window-width="1535"
     inkscape:window-height="876"
     id="namedview9"
     showgrid="true"
     inkscape:snap-page="true"
     inkscape:zoom="14.75"
     inkscape:cx="8"
     inkscape:cy="2.8784479"
     inkscape:window-x="65"
     inkscape:window-y="24"
     inkscape:window-maximized="1"
     inkscape:current-layer="svg2">
    <inkscape:grid
       type="xygrid"
       id="grid4147" />
  </sodipodi:namedview>
  <defs
     id="defs4">
    <style
       type="text/css"
       id="current-color-scheme">
   .ColorScheme-Text { color:#5c616c; }
  </style>
  </defs>
  <path
     style="opacity:1;fill:#5c616c;fill-opacity:1"
     d="M 2 1.0097656 C 0.892 1.0097656 0 1.9017656 0 3.0097656 L 0 13.009766 C 0 14.117766 0.892 15.009766 2 15.009766 L 14 15.009766 C 15.108 15.009766 16 14.117766 16 13.009766 L 16 3.0097656 C 16 1.9017656 15.108 1.0097656 14 1.0097656 L 2 1.0097656 z M 3 5 L 5 5 L 5 7 L 3 7 L 3 5 z M 7 5 L 9 5 L 9 7 L 7 7 L 7 5 z M 11 5 L 13 5 L 13 7 L 11 7 L 11 5 z M 3 9 L 5 9 L 5 11 L 3 11 L 3 9 z M 7 9 L 9 9 L 9 11 L 7 11 L 7 9 z M 11 9 L 13 9 L 13 11 L 11 11 L 11 9 z "
     id="path4143" />
</svg>
