<?xml version="1.0" encoding="UTF-8" standalone="no"?>
<svg
   xmlns:dc="http://purl.org/dc/elements/1.1/"
   xmlns:cc="http://creativecommons.org/ns#"
   xmlns:rdf="http://www.w3.org/1999/02/22-rdf-syntax-ns#"
   xmlns:svg="http://www.w3.org/2000/svg"
   xmlns="http://www.w3.org/2000/svg"
   xmlns:sodipodi="http://sodipodi.sourceforge.net/DTD/sodipodi-0.dtd"
   xmlns:inkscape="http://www.inkscape.org/namespaces/inkscape"
   viewBox="0 0 16 16"
   width="16"
   version="1.1"
   height="16"
   id="svg2"
   inkscape:version="0.91 r13725"
   sodipodi:docname="update_youtube.svg">
  <metadata
     id="metadata10">
    <rdf:RDF>
      <cc:Work
         rdf:about="">
        <dc:format>image/svg+xml</dc:format>
        <dc:type
           rdf:resource="http://purl.org/dc/dcmitype/StillImage" />
        <dc:title></dc:title>
      </cc:Work>
    </rdf:RDF>
  </metadata>
  <sodipodi:namedview
     pagecolor="#ffffff"
     bordercolor="#666666"
     borderopacity="1"
     objecttolerance="10"
     gridtolerance="10"
     guidetolerance="10"
     inkscape:pageopacity="0"
     inkscape:pageshadow="2"
     inkscape:window-width="1535"
     inkscape:window-height="876"
     id="namedview8"
     showgrid="false"
     inkscape:zoom="10.727273"
     inkscape:cx="11"
     inkscape:cy="11"
     inkscape:window-x="65"
     inkscape:window-y="24"
     inkscape:window-maximized="1"
     inkscape:current-layer="svg2" />
  <defs
     id="defs12">
    <style
       type="text/css"
       id="current-color-scheme">
   .ColorScheme-Text { color:#5c616c; } .ColorScheme-Highlight { color:#5294e2; } .ColorScheme-ButtonBackground { color:#5c616c; }
  </style>
    <style
       id="current-color-scheme-6"
       type="text/css">
   .ColorScheme-Text { color:#5c616c; }
  </style>
  </defs>
  <path
     style="opacity:1;fill:#5c616c;fill-opacity:1;stroke:none;stroke-width:2;stroke-linecap:butt;stroke-linejoin:round;stroke-miterlimit:4;stroke-dasharray:none;stroke-opacity:1"
     d="M 4 1 C 1.7839999 1 5.9211895e-16 2.784 0 5 L 0 11 C 0 13.216 1.7839999 15 4 15 L 8.0292969 15 C 7.3927536 14.160948 7 13.127971 7 12 C 7 11.418523 7.1199607 10.86792 7.3046875 10.347656 L 4 12 L 4 4 L 10.507812 7.2539062 C 10.982387 7.1032945 11.477322 7 12 7 C 13.638115 7 15.086554 7.8098903 16 9.0371094 L 16 5 C 16 2.7839999 14.216 1 12 1 L 4 1 z M 12 8 C 9.7909 8 8 9.7909 8 12 C 8 14.2091 9.7909 16 12 16 C 14.2091 16 16 14.2091 16 12 C 16 9.7909 14.2091 8 12 8 z M 12 9 A 3 3 0 0 1 15 12 L 14 12 A 2 2 0 0 0 12 10 L 12 9 z M 9 12 L 10 12 A 2 2 0 0 0 12 14 L 12 15 A 3 3 0 0 1 9 12 z "
     id="rect4143" />
  <g
     transform="translate(-6,-1034.4)"
     id="g4" />
  <g
     id="g4173"
     transform="translate(-6,-1034.4)"
     style="fill:none;stroke:#000000;stroke-opacity:1;stroke-width:2;stroke-miterlimit:4;stroke-dasharray:none" />
</svg>
