<?xml version="1.0" encoding="UTF-8" standalone="no"?>
<svg
   xmlns:dc="http://purl.org/dc/elements/1.1/"
   xmlns:cc="http://creativecommons.org/ns#"
   xmlns:rdf="http://www.w3.org/1999/02/22-rdf-syntax-ns#"
   xmlns:svg="http://www.w3.org/2000/svg"
   xmlns="http://www.w3.org/2000/svg"
   xmlns:sodipodi="http://sodipodi.sourceforge.net/DTD/sodipodi-0.dtd"
   xmlns:inkscape="http://www.inkscape.org/namespaces/inkscape"
   height="256"
   width="256"
   version="1"
   id="svg2"
   inkscape:version="0.91 r13725"
   sodipodi:docname="background.svg">
  <metadata
     id="metadata18">
    <rdf:RDF>
      <cc:Work
         rdf:about="">
        <dc:format>image/svg+xml</dc:format>
        <dc:type
           rdf:resource="http://purl.org/dc/dcmitype/StillImage" />
        <dc:title></dc:title>
      </cc:Work>
    </rdf:RDF>
  </metadata>
  <defs
     id="defs16" />
  <sodipodi:namedview
     pagecolor="#ffffff"
     bordercolor="#666666"
     borderopacity="1"
     objecttolerance="10"
     gridtolerance="10"
     guidetolerance="10"
     inkscape:pageopacity="0"
     inkscape:pageshadow="2"
     inkscape:window-width="1535"
     inkscape:window-height="876"
     id="namedview14"
     showgrid="false"
     inkscape:zoom="1"
     inkscape:cx="78.991211"
     inkscape:cy="123.42857"
     inkscape:window-x="65"
     inkscape:window-y="24"
     inkscape:window-maximized="1"
     inkscape:current-layer="svg2">
    <inkscape:grid
       type="xygrid"
       id="grid4162" />
  </sodipodi:namedview>
  <path
     inkscape:connector-curvature="0"
     style="fill:#5d5d5d"
     d="M 199.99532,128.00514 A 71.996916,71.996916 0 0 1 127.9984,200.00206 71.996916,71.996916 0 0 1 56.001484,128.00514 71.996916,71.996916 0 0 1 127.9984,56.008228 71.996916,71.996916 0 0 1 199.99532,128.00514 Z"
     id="path4" />
  <path
     inkscape:connector-curvature="0"
     style="opacity:0.2"
     d="m 127.9984,36.008912 a 31.998629,31.998629 0 0 0 -31.998628,31.998628 31.998629,31.998629 0 0 0 0.28,3.952632 31.998629,31.998629 0 0 1 31.718638,-27.951604 31.998629,31.998629 0 0 1 31.71864,28.046 31.998629,31.998629 0 0 0 0.28,-4.047028 31.998629,31.998629 0 0 0 -31.99863,-31.998628 z m -55.9976,55.9976 a 31.998629,31.998629 0 0 0 -31.998628,31.998628 31.998629,31.998629 0 0 0 0.2816,3.95183 31.998629,31.998629 0 0 1 31.71704,-27.9508 31.998629,31.998629 0 0 1 31.718638,28.0468 31.998629,31.998629 0 0 0 0.28,-4.04783 31.998629,31.998629 0 0 0 -31.998626,-31.998628 z m 111.9952,0 a 31.998629,31.998629 0 0 0 -31.99863,31.998628 31.998629,31.998629 0 0 0 0.28128,3.95295 31.998629,31.998629 0 0 1 31.71864,-27.9508 31.998629,31.998629 0 0 1 31.71864,28.0468 31.998629,31.998629 0 0 0 0.28,-4.04783 A 31.998629,31.998629 0 0 0 183.9973,92.007632 Z M 16.203191,128.00497 c -0.0472,1.33594 -0.203192,2.64789 -0.203192,3.99983 C 16,194.05014 65.94986,244 127.9952,244 c 62.04534,0 111.9952,-49.94986 111.9952,-111.9952 0,-1.35066 -0.15616,-2.66101 -0.20312,-3.99983 -2.1119,60.16542 -51.1018,107.99537 -111.7952,107.99537 -60.695,0 -109.6833,-47.82995 -111.795209,-107.99537 z M 127.9984,148.00411 a 31.998629,31.998629 0 0 0 -31.998628,31.99863 31.998629,31.998629 0 0 0 0.28128,3.95295 31.998629,31.998629 0 0 1 31.718638,-27.9508 31.998629,31.998629 0 0 1 31.71864,28.0468 31.998629,31.998629 0 0 0 0.28,-4.04783 31.998629,31.998629 0 0 0 -31.99863,-31.99863 z"
     id="path6" />
  <path
     inkscape:connector-curvature="0"
     style="fill:#cccccc"
     d="m 127.9984,16.009941 c -62.04534,0 -111.995201,49.949859 -111.995201,111.995199 0,62.04534 49.949861,111.9952 111.995201,111.9952 62.04534,0 111.9952,-49.94986 111.9952,-111.9952 0,-62.04534 -49.94986,-111.995199 -111.9952,-111.995199 z m 0,23.998971 A 31.998629,31.998629 0 0 1 159.99703,72.00754 31.998629,31.998629 0 0 1 127.9984,104.00617 31.998629,31.998629 0 0 1 95.999772,72.00754 31.998629,31.998629 0 0 1 127.9984,40.008912 Z m -55.9976,55.9976 A 31.998629,31.998629 0 0 1 103.99943,128.00514 31.998629,31.998629 0 0 1 72.0008,160.00377 31.998629,31.998629 0 0 1 40.002172,128.00514 31.998629,31.998629 0 0 1 72.0008,96.006512 Z m 111.9952,0 A 31.998629,31.998629 0 0 1 215.99463,128.00514 31.998629,31.998629 0 0 1 183.996,160.00377 31.998629,31.998629 0 0 1 151.99737,128.00514 31.998629,31.998629 0 0 1 183.996,96.006512 Z m -55.9976,55.997598 a 31.998629,31.998629 0 0 1 31.99863,31.99863 31.998629,31.998629 0 0 1 -31.99863,31.99863 31.998629,31.998629 0 0 1 -31.998628,-31.99863 31.998629,31.998629 0 0 1 31.998628,-31.99863 z"
     id="path8" />
  <path
     inkscape:connector-curvature="0"
     style="opacity:0.2;fill:#ffffff"
     d="m 128,16.007812 c -62.04534,0 -112,49.954656 -112,111.999998 0,0.45421 0.04514,0.89615 0.07031,1.34375 C 17.472375,68.543484 66.842912,20.007812 128,20.007812 l 0.008,0 c 61.15709,0 110.51981,48.535672 111.92188,109.343748 C 239.95477,128.90428 240,128.46158 240,128.00781 240,65.962468 190.05315,16.007812 128.00781,16.007812 l -0.008,0 z"
     id="path10" />
  <path
     inkscape:connector-curvature="0"
     style="fill:#5d5d5d"
     d="m 141.85381,120.00548 a 3.9998286,3.9998286 0 0 0 -5.46377,-1.46393 3.9998286,3.9998286 0 0 0 -1.46394,5.46376 3.9998286,3.9998286 0 0 0 5.46377,1.46394 3.9998286,3.9998286 0 0 0 1.46394,-5.46377 z m -16.3913,-4.39181 a 3.9998286,3.9998286 0 0 0 -5.46377,-1.46393 3.9998286,3.9998286 0 0 0 -1.46394,5.46376 3.9998286,3.9998286 0 0 0 5.46377,1.46394 3.9998286,3.9998286 0 0 0 1.46394,-5.46377 z m 11.99949,20.78391 a 3.9998286,3.9998286 0 0 0 -5.46377,-1.46394 3.9998286,3.9998286 0 0 0 -1.46394,5.46377 3.9998286,3.9998286 0 0 0 5.46377,1.46394 3.9998286,3.9998286 0 0 0 1.46394,-5.46377 z m -16.3913,-4.39181 a 3.9998286,3.9998286 0 0 0 -5.46377,-1.46394 3.9998286,3.9998286 0 0 0 -1.46394,5.46377 3.9998286,3.9998286 0 0 0 5.46377,1.46394 3.9998286,3.9998286 0 0 0 1.46394,-5.46377 z"
     id="path12" />
</svg>
