<?xml version="1.0" encoding="UTF-8" standalone="no"?>
<svg
   xmlns:dc="http://purl.org/dc/elements/1.1/"
   xmlns:cc="http://creativecommons.org/ns#"
   xmlns:rdf="http://www.w3.org/1999/02/22-rdf-syntax-ns#"
   xmlns:svg="http://www.w3.org/2000/svg"
   xmlns="http://www.w3.org/2000/svg"
   xmlns:sodipodi="http://sodipodi.sourceforge.net/DTD/sodipodi-0.dtd"
   xmlns:inkscape="http://www.inkscape.org/namespaces/inkscape"
   width="16"
   height="16"
   viewBox="0 0 16 16"
   id="svg2"
   version="1.1"
   inkscape:version="0.91 r13725"
   sodipodi:docname="a_marker.svg">
  <metadata
     id="metadata11">
    <rdf:RDF>
      <cc:Work
         rdf:about="">
        <dc:format>image/svg+xml</dc:format>
        <dc:type
           rdf:resource="http://purl.org/dc/dcmitype/StillImage" />
        <dc:title></dc:title>
      </cc:Work>
    </rdf:RDF>
  </metadata>
  <sodipodi:namedview
     pagecolor="#ffffff"
     bordercolor="#666666"
     borderopacity="1"
     objecttolerance="10"
     gridtolerance="10"
     guidetolerance="10"
     inkscape:pageopacity="0"
     inkscape:pageshadow="2"
     inkscape:window-width="1535"
     inkscape:window-height="876"
     id="namedview9"
     showgrid="true"
     inkscape:zoom="23.96"
     inkscape:cx="-4.0338983"
     inkscape:cy="8"
     inkscape:window-x="65"
     inkscape:window-y="24"
     inkscape:window-maximized="1"
     inkscape:current-layer="svg2">
    <inkscape:grid
       type="xygrid"
       id="grid4139" />
  </sodipodi:namedview>
  <defs
     id="defs4">
    <style
       type="text/css"
       id="current-color-scheme">
   .ColorScheme-Text { color:#5c616c; }
  </style>
  </defs>
  <path
     style="color:#5c616c;opacity:1;fill:currentColor"
     d="M 8 1 C 4.68632 1 2 2.9948781 2 5.4550781 C 2 5.5232781 2.0174381 5.5917563 2.0234375 5.6601562 L 2 5.6660156 C 2 8.9999996 6 15 8 15 C 10 15 14 8.9999996 14 5.6660156 L 13.976562 5.6601562 C 13.982563 5.5917863 14 5.5232781 14 5.4550781 C 14 2.9948781 11.31368 1 8 1 z M 8 2.9921875 C 9.1666664 2.9921875 9.9613902 3.6080267 10.400391 4.1933594 C 10.762382 4.6760143 10.836877 5.0076551 10.882812 5.1640625 A 0.50004997 0.50004997 0 0 1 10.998047 5.4414062 A 0.50004997 0.50004997 0 0 0 10.998047 5.4433594 A 0.50004997 0.50004997 0 0 1 11 5.53125 L 11 8.4101562 A 0.50004997 0.50004997 0 0 1 11 8.5722656 L 11 11.492188 A 0.50004997 0.50004997 0 1 1 10 11.492188 L 10 8.9921875 L 6.0078125 8.9921875 L 6.0078125 11.492188 A 0.50004997 0.50004997 0 1 1 5.0078125 11.492188 L 5.0078125 8.5742188 A 0.50004997 0.50004997 0 0 1 5.0078125 8.4003906 L 5.0078125 5.546875 A 0.50004997 0.50004997 0 0 1 5.0078125 5.4570312 A 0.50004997 0.50004997 0 0 1 5.0117188 5.421875 A 0.50004997 0.50004997 0 0 1 5.0117188 5.4179688 A 0.50004997 0.50004997 0 0 1 5.0214844 5.3730469 A 0.50004997 0.50004997 0 0 1 5.1230469 5.1660156 C 5.1684626 5.0096062 5.2429216 4.6764442 5.6035156 4.1933594 C 6.0407587 3.6075883 6.8333334 2.9921875 8 2.9921875 z M 8 3.9921875 C 7.1666663 3.9921875 6.7134931 4.376788 6.4042969 4.7910156 C 6.106846 5.1895081 6.0154452 5.5528872 6.0078125 5.5820312 L 6.0078125 7.9921875 L 10 7.9921875 L 10 5.5820312 C 9.9922612 5.552868 9.8987958 5.1918835 9.5996094 4.7929688 C 9.2886094 4.3783027 8.8333336 3.9921875 8 3.9921875 z "
     id="path7" />
</svg>
