<svg xmlns="http://www.w3.org/2000/svg" width="16" height="16" version="1.1">
 <defs>
  <style id="current-color-scheme" type="text/css">
   .ColorScheme-Text { color:#dfdfdf; }
  </style>
 </defs>
 <path style="fill:currentColor" class="ColorScheme-Text" d="M 8.0136719 0.00390625 C 6.1183815 0.00059833339 4.2216881 0.66637226 2.7089844 2 C -0.31642316 4.6672555 -0.88023222 9.1916182 1.3984375 12.519531 A 1.0001 1.0001 0 1 0 3.0488281 11.390625 C 1.3319567 8.8831975 1.7517465 5.5096527 4.03125 3.5 C 6.3107535 1.4903473 9.7119004 1.4960745 11.984375 3.5136719 C 14.25685 5.5312693 14.665067 8.9048308 12.939453 11.40625 A 1.0003803 1.0003803 0 1 0 14.585938 12.542969 C 16.87621 9.2230296 16.326625 4.695378 13.310547 2.0175781 C 11.802508 0.6786782 9.9089623 0.00721417 8.0136719 0.00390625 z M 8 3.0039062 C 6.862006 3.0039062 5.7233885 3.3878885 4.7988281 4.1582031 C 2.9497073 5.6988324 2.463014 8.3582226 3.6445312 10.455078 A 1.0001 1.0001 0 1 0 5.3867188 9.4726562 C 4.6727196 8.2055119 4.9626415 6.6263255 6.0800781 5.6953125 C 7.1975147 4.7642995 8.8024853 4.7642994 9.9199219 5.6953125 C 11.037358 6.6263256 11.32728 8.2055119 10.613281 9.4726562 A 1.0001 1.0001 0 1 0 12.355469 10.455078 C 13.536986 8.3582227 13.050293 5.6988325 11.201172 4.1582031 C 10.276612 3.3878884 9.137994 3.0039063 8 3.0039062 z M 8 6 A 2 2 0 0 0 6 8 A 2 2 0 0 0 7.1152344 9.7910156 L 6 15 L 10 15 L 8.8847656 9.7929688 A 2 2 0 0 0 10 8 A 2 2 0 0 0 8 6 z"/>
</svg>
