<svg xmlns="http://www.w3.org/2000/svg" width="16" height="16" version="1.1">
 <defs>
  <style id="current-color-scheme" type="text/css">
   .ColorScheme-Text { color:#dfdfdf; }
  </style>
 </defs>
 <path style="fill:currentColor" class="ColorScheme-Text" d="M 1 2 A 1.0001 1.0001 0 0 0 0 3 L 0 4 L 0 5 L 2 5 L 2 4 L 14 4 L 14 12 L 10 12 L 9 12 L 9 14 L 10 14 L 15 14 A 1.0001 1.0001 0 0 0 16 13 L 16 3 A 1.0001 1.0001 0 0 0 15 2 L 1 2 z M 0 6 L 0 8 A 6 6 0 0 1 6 14 L 8 14 C 8 9.581722 4.418278 6 0 6 z M 0 9 L 0 11 A 3 3 0 0 1 3 14 L 5 14 C 5 11.238576 2.7614237 9 0 9 z M 0 12 L 0 14 L 2 14 A 2 2 0 0 0 0 12 z"/>
</svg>
