<?xml version="1.0" encoding="UTF-8" standalone="no"?>
<svg
   xmlns:dc="http://purl.org/dc/elements/1.1/"
   xmlns:cc="http://creativecommons.org/ns#"
   xmlns:rdf="http://www.w3.org/1999/02/22-rdf-syntax-ns#"
   xmlns:svg="http://www.w3.org/2000/svg"
   xmlns="http://www.w3.org/2000/svg"
   xmlns:sodipodi="http://sodipodi.sourceforge.net/DTD/sodipodi-0.dtd"
   xmlns:inkscape="http://www.inkscape.org/namespaces/inkscape"
   width="16"
   height="16"
   viewBox="0 0 16 16"
   id="svg2"
   version="1.1"
   inkscape:version="0.91 r13725"
   sodipodi:docname="drive-harddisk.svg">
  <metadata
     id="metadata11">
    <rdf:RDF>
      <cc:Work
         rdf:about="">
        <dc:format>image/svg+xml</dc:format>
        <dc:type
           rdf:resource="http://purl.org/dc/dcmitype/StillImage" />
      </cc:Work>
    </rdf:RDF>
  </metadata>
  <sodipodi:namedview
     pagecolor="#ffffff"
     bordercolor="#666666"
     borderopacity="1"
     objecttolerance="10"
     gridtolerance="10"
     guidetolerance="10"
     inkscape:pageopacity="0"
     inkscape:pageshadow="2"
     inkscape:window-width="1535"
     inkscape:window-height="876"
     id="namedview9"
     showgrid="false"
     inkscape:zoom="14.75"
     inkscape:cx="-4.0338983"
     inkscape:cy="8"
     inkscape:window-x="65"
     inkscape:window-y="24"
     inkscape:window-maximized="1"
     inkscape:current-layer="svg2" />
  <defs
     id="defs4">
    <style
       type="text/css"
       id="current-color-scheme">
   .ColorScheme-Text { color:#5c616c; }
  </style>
  </defs>
  <path
     style="fill:#5c616c;opacity:1;fill-opacity:1"
     d="M 3 1.0292969 C 2 1.0292969 2 2.0292969 2 2.0292969 L 2 14.029297 C 2 14.029297 2 15.029297 3 15.029297 L 13 15.029297 C 13 15.029297 14 15.029297 14 14.029297 L 14 2.0292969 C 14 2.0292969 14 1.0292969 13 1.0292969 L 3 1.0292969 z M 8 3 A 4 4 0 0 1 12 7 A 4 4 0 0 1 8 11 A 4 4 0 0 1 4 7 A 4 4 0 0 1 8 3 z M 8 5.0292969 C 6.8954 5.0292969 6 5.9247269 6 7.0292969 C 6 8.1338669 6.89543 9.0292969 8 9.0292969 C 9.10457 9.0292969 10 8.1338669 10 7.0292969 C 10 5.9247269 9.10457 5.0292969 8 5.0292969 z "
     id="path4143" />
</svg>
