<?xml version="1.0" encoding="UTF-8" standalone="no"?>
<svg
   xmlns:dc="http://purl.org/dc/elements/1.1/"
   xmlns:cc="http://creativecommons.org/ns#"
   xmlns:rdf="http://www.w3.org/1999/02/22-rdf-syntax-ns#"
   xmlns:svg="http://www.w3.org/2000/svg"
   xmlns="http://www.w3.org/2000/svg"
   xmlns:sodipodi="http://sodipodi.sourceforge.net/DTD/sodipodi-0.dtd"
   xmlns:inkscape="http://www.inkscape.org/namespaces/inkscape"
   width="16"
   height="16"
   viewBox="0 0 16 16"
   id="svg2"
   version="1.1"
   inkscape:version="0.91 r13725"
   sodipodi:docname="hue.svg">
  <metadata
     id="metadata10">
    <rdf:RDF>
      <cc:Work
         rdf:about="">
        <dc:format>image/svg+xml</dc:format>
        <dc:type
           rdf:resource="http://purl.org/dc/dcmitype/StillImage" />
        <dc:title></dc:title>
      </cc:Work>
    </rdf:RDF>
  </metadata>
  <sodipodi:namedview
     pagecolor="#ffffff"
     bordercolor="#666666"
     borderopacity="1"
     objecttolerance="10"
     gridtolerance="10"
     guidetolerance="10"
     inkscape:pageopacity="0"
     inkscape:pageshadow="2"
     inkscape:window-width="1535"
     inkscape:window-height="876"
     id="namedview8"
     showgrid="false"
     inkscape:zoom="14.75"
     inkscape:cx="-4.0338983"
     inkscape:cy="8"
     inkscape:window-x="65"
     inkscape:window-y="24"
     inkscape:window-maximized="1"
     inkscape:current-layer="svg2" />
  <defs
     id="defs10">
    <style
       type="text/css"
       id="current-color-scheme">
   .ColorScheme-Text { color:#5c616c; } .ColorScheme-Highlight { color:#5294e2; } .ColorScheme-ButtonBackground { color:#5c616c; }
  </style>
  </defs>
  <path
     style="fill:#5c616c;fill-opacity:1"
     class="ColorScheme-Highlight"
     d="M 3 1 C 1.892 1 1 1.892 1 3 L 1 13 C 1 14.108 1.892 15 3 15 L 13 15 C 14.108 15 15 14.108 15 13 L 15 3 C 15 1.892 14.108 1 13 1 L 3 1 z M 8 4 C 9.1046 4 10 4.89547 10 6 C 10 7.10453 9.10458 8 8 8 C 6.89542 8 6 7.10453 6 6 C 6 4.89547 6.89543 4 8 4 z M 8 9 C 11.9998 8.998 12 11.667969 12 11.667969 L 12 12 L 4 12 L 4 11.667969 C 4 11.667969 3.99985 9.0023 8 9 z"
     id="path6" />
</svg>
