<?xml version="1.0" encoding="UTF-8" standalone="no"?>
<svg
   xmlns:dc="http://purl.org/dc/elements/1.1/"
   xmlns:cc="http://creativecommons.org/ns#"
   xmlns:rdf="http://www.w3.org/1999/02/22-rdf-syntax-ns#"
   xmlns:svg="http://www.w3.org/2000/svg"
   xmlns="http://www.w3.org/2000/svg"
   xmlns:sodipodi="http://sodipodi.sourceforge.net/DTD/sodipodi-0.dtd"
   xmlns:inkscape="http://www.inkscape.org/namespaces/inkscape"
   width="16"
   height="16"
   viewBox="0 0 16 16"
   id="svg2"
   version="1.1"
   inkscape:version="0.91 r13725"
   sodipodi:docname="refresh.svg">
  <metadata
     id="metadata11">
    <rdf:RDF>
      <cc:Work
         rdf:about="">
        <dc:format>image/svg+xml</dc:format>
        <dc:type
           rdf:resource="http://purl.org/dc/dcmitype/StillImage" />
        <dc:title></dc:title>
      </cc:Work>
    </rdf:RDF>
  </metadata>
  <sodipodi:namedview
     pagecolor="#ffffff"
     bordercolor="#666666"
     borderopacity="1"
     objecttolerance="10"
     gridtolerance="10"
     guidetolerance="10"
     inkscape:pageopacity="0"
     inkscape:pageshadow="2"
     inkscape:window-width="1535"
     inkscape:window-height="876"
     id="namedview9"
     showgrid="false"
     inkscape:zoom="14.75"
     inkscape:cx="-4.0338983"
     inkscape:cy="8"
     inkscape:window-x="65"
     inkscape:window-y="24"
     inkscape:window-maximized="1"
     inkscape:current-layer="svg2" />
  <defs
     id="defs4">
    <style
       type="text/css"
       id="current-color-scheme">
   .ColorScheme-Text { color:#5c616c; }
  </style>
  </defs>
  <path
     style="color:#5c616c;opacity:1;fill:currentColor"
     class="ColorScheme-Text"
     d="m 8.005859,1.015625 c 3.866,0 7,3.134 7,7 0,3.866 -3.134,7 -7,7 -3.1748,0 -5.86145,-2.1032 -6.71875,-5 l 2.15625,0 c 0.77427,1.7595 2.5168,3 4.5625,3 2.7614,0 5,-2.2386 5,-5 0,-2.7614 -2.2386,-5 -5,-5 -1.3816,0 -2.615525,0.575025 -3.515625,1.484375 l 2.5097656,2.515625 -5.9999996,0 0,-6 2.052734,2.0527344 c 1.27,-1.265 3.0192187,-2.0527344 4.9492188,-2.0527344 l 0.00391,0 z"
     id="path7"
     inkscape:connector-curvature="0" />
</svg>
