<?xml version="1.0" encoding="UTF-8" standalone="no"?>
<svg
   xmlns:dc="http://purl.org/dc/elements/1.1/"
   xmlns:cc="http://creativecommons.org/ns#"
   xmlns:rdf="http://www.w3.org/1999/02/22-rdf-syntax-ns#"
   xmlns:svg="http://www.w3.org/2000/svg"
   xmlns="http://www.w3.org/2000/svg"
   xmlns:sodipodi="http://sodipodi.sourceforge.net/DTD/sodipodi-0.dtd"
   xmlns:inkscape="http://www.inkscape.org/namespaces/inkscape"
   width="16"
   height="16"
   viewBox="0 0 16 16"
   id="svg2"
   version="1.1"
   inkscape:version="0.91 r13725"
   sodipodi:docname="saturation.svg">
  <metadata
     id="metadata11">
    <rdf:RDF>
      <cc:Work
         rdf:about="">
        <dc:format>image/svg+xml</dc:format>
        <dc:type
           rdf:resource="http://purl.org/dc/dcmitype/StillImage" />
        <dc:title></dc:title>
      </cc:Work>
    </rdf:RDF>
  </metadata>
  <sodipodi:namedview
     pagecolor="#ffffff"
     bordercolor="#666666"
     borderopacity="1"
     objecttolerance="10"
     gridtolerance="10"
     guidetolerance="10"
     inkscape:pageopacity="0"
     inkscape:pageshadow="2"
     inkscape:window-width="1535"
     inkscape:window-height="876"
     id="namedview9"
     showgrid="false"
     inkscape:zoom="14.75"
     inkscape:cx="-4.0338983"
     inkscape:cy="8"
     inkscape:window-x="65"
     inkscape:window-y="24"
     inkscape:window-maximized="1"
     inkscape:current-layer="svg2" />
  <defs
     id="defs4">
    <style
       type="text/css"
       id="current-color-scheme">
   .ColorScheme-Text { color:#5c616c; }
  </style>
  </defs>
  <path
     style="fill:#5c616c;opacity:1;fill-opacity:1"
     d="M 8 1 C 6.2085 1 4.4175813 1.6838812 3.0507812 3.0507812 C 0.31708125 5.7844812 0.31708125 10.216219 3.0507812 12.949219 C 5.7843812 15.683219 10.216219 15.683219 12.949219 12.949219 C 15.683219 10.216219 15.683219 5.7843812 12.949219 3.0507812 C 11.582219 1.6838812 9.7915 1 8 1 z M 8 3 A 2 2 0 0 1 10 5 A 2 2 0 0 1 8 7 A 2 2 0 0 1 6 5 A 2 2 0 0 1 8 3 z M 5 8 A 2 2 0 0 1 7 10 A 2 2 0 0 1 5 12 A 2 2 0 0 1 3 10 A 2 2 0 0 1 5 8 z M 11 8 A 2 2 0 0 1 13 10 A 2 2 0 0 1 11 12 A 2 2 0 0 1 9 10 A 2 2 0 0 1 11 8 z "
     id="path4141" />
</svg>
